<?xml version="1.0" encoding="UTF-8" standalone="no"?>
<!DOCTYPE svg PUBLIC "-//W3C//DTD SVG 1.1//EN"
 "http://www.w3.org/Graphics/SVG/1.1/DTD/svg11.dtd">
<!-- Generated by graphviz version 2.26.3 (20100126.1600)
 -->
<!-- Title: parts Pages: 1 -->
<svg width="368pt" height="342pt"
 viewBox="0.00 0.00 367.97 342.00" xmlns="http://www.w3.org/2000/svg" xmlns:xlink="http://www.w3.org/1999/xlink">
<g id="graph1" class="graph" transform="scale(1 1) rotate(0) translate(4 338)">
<title>parts</title>
<polygon fill="white" stroke="white" points="-4,5 -4,-338 364.967,-338 364.967,5 -4,5"/>
<!-- 1 -->
<g id="node1" class="node"><title>1</title>
<ellipse fill="none" stroke="black" cx="103.967" cy="-315" rx="27" ry="18.3848"/>
<text text-anchor="middle" x="103.967" y="-311.4" font-family="Times Roman,serif" font-size="14.00">1</text>
</g>
<!-- 7 -->
<g id="node3" class="node"><title>7</title>
<ellipse fill="none" stroke="black" cx="40.9667" cy="-93" rx="27" ry="18.3848"/>
<text text-anchor="middle" x="40.9667" y="-89.4" font-family="Times Roman,serif" font-size="14.00">7</text>
</g>
<!-- 1&#45;&#45;7 -->
<g id="edge2" class="edge"><title>1&#45;&#45;7</title>
<path fill="none" stroke="black" d="M96.9586,-296.855C87.5838,-272.092 70.8791,-226.191 59.9667,-186 53.0579,-160.554 47.3633,-130.588 44.0638,-111.691"/>
</g>
<!-- 2 -->
<g id="node5" class="node"><title>2</title>
<ellipse fill="none" stroke="black" cx="167.967" cy="-241" rx="27" ry="18.3848"/>
<text text-anchor="middle" x="167.967" y="-237.4" font-family="Times Roman,serif" font-size="14.00">2</text>
</g>
<!-- 1&#45;&#45;2 -->
<g id="edge4" class="edge"><title>1&#45;&#45;2</title>
<path fill="none" stroke="black" d="M117.854,-298.943C128.589,-286.531 143.379,-269.43 154.107,-257.026"/>
</g>
<!-- 10 -->
<g id="node14" class="node"><title>10</title>
<ellipse fill="none" stroke="black" cx="40.9667" cy="-19" rx="27" ry="18.3848"/>
<text text-anchor="middle" x="40.9667" y="-15.4" font-family="Times Roman,serif" font-size="14.00">10</text>
</g>
<!-- 7&#45;&#45;10 -->
<g id="edge30" class="edge"><title>7&#45;&#45;10</title>
<path fill="none" stroke="black" d="M40.9667,-74.3267C40.9667,-63.1088 40.9667,-48.8841 40.9667,-37.6674"/>
</g>
<!-- 3 -->
<g id="node7" class="node"><title>3</title>
<ellipse fill="none" stroke="black" cx="332.967" cy="-93" rx="27" ry="18.3848"/>
<text text-anchor="middle" x="332.967" y="-89.4" font-family="Times Roman,serif" font-size="14.00">3</text>
</g>
<!-- 2&#45;&#45;3 -->
<g id="edge6" class="edge"><title>2&#45;&#45;3</title>
<path fill="none" stroke="black" d="M193.595,-234.258C219.378,-226.364 258.946,-211.075 284.967,-186 306.816,-164.945 320.585,-131.784 327.519,-111.271"/>
</g>
<!-- 4 -->
<g id="node9" class="node"><title>4</title>
<ellipse fill="none" stroke="black" cx="167.967" cy="-167" rx="27" ry="18.3848"/>
<text text-anchor="middle" x="167.967" y="-163.4" font-family="Times Roman,serif" font-size="14.00">4</text>
</g>
<!-- 2&#45;&#45;4 -->
<g id="edge8" class="edge"><title>2&#45;&#45;4</title>
<path fill="none" stroke="black" d="M167.967,-222.327C167.967,-211.109 167.967,-196.884 167.967,-185.667"/>
</g>
<!-- 11 -->
<g id="node11" class="node"><title>11</title>
<ellipse fill="none" stroke="black" cx="260.967" cy="-19" rx="27" ry="18.3848"/>
<text text-anchor="middle" x="260.967" y="-15.4" font-family="Times Roman,serif" font-size="14.00">11</text>
</g>
<!-- 3&#45;&#45;11 -->
<g id="edge10" class="edge"><title>3&#45;&#45;11</title>
<path fill="none" stroke="black" d="M317.697,-77.3065C305.396,-64.6636 288.196,-46.9859 275.967,-34.4171"/>
</g>
<!-- 4&#45;&#45;7 -->
<g id="edge12" class="edge"><title>4&#45;&#45;7</title>
<path fill="none" stroke="black" d="M147.279,-154.946C123.663,-141.185 85.258,-118.808 61.6453,-105.049"/>
</g>
<!-- 4&#45;&#45;11 -->
<g id="edge20" class="edge"><title>4&#45;&#45;11</title>
<path fill="none" stroke="black" d="M158.613,-149.538C149.426,-129.767 138.694,-97.2858 152.967,-74 170.67,-45.1173 208.823,-30.8099 234.701,-24.1685"/>
</g>
<!-- 4&#45;&#45;10 -->
<g id="edge14" class="edge"><title>4&#45;&#45;10</title>
<path fill="none" stroke="black" d="M154.134,-150.88C129.704,-122.411 79.2001,-63.5554 54.7827,-35.1005"/>
</g>
<!-- 8 -->
<g id="node16" class="node"><title>8</title>
<ellipse fill="none" stroke="black" cx="188.967" cy="-93" rx="27" ry="18.3848"/>
<text text-anchor="middle" x="188.967" y="-89.4" font-family="Times Roman,serif" font-size="14.00">8</text>
</g>
<!-- 4&#45;&#45;8 -->
<g id="edge16" class="edge"><title>4&#45;&#45;8</title>
<path fill="none" stroke="black" d="M173.158,-148.708C176.389,-137.323 180.529,-122.732 183.763,-111.338"/>
</g>
<!-- 9 -->
<g id="node18" class="node"><title>9</title>
<ellipse fill="none" stroke="black" cx="260.967" cy="-93" rx="27" ry="18.3848"/>
<text text-anchor="middle" x="260.967" y="-89.4" font-family="Times Roman,serif" font-size="14.00">9</text>
</g>
<!-- 4&#45;&#45;9 -->
<g id="edge18" class="edge"><title>4&#45;&#45;9</title>
<path fill="none" stroke="black" d="M185.898,-152.732C202.366,-139.628 226.64,-120.314 243.09,-107.224"/>
</g>
<!-- 9&#45;&#45;11 -->
<g id="edge32" class="edge"><title>9&#45;&#45;11</title>
<path fill="none" stroke="black" d="M260.967,-74.3267C260.967,-63.1088 260.967,-48.8841 260.967,-37.6674"/>
</g>
<!-- 5 -->
<g id="node20" class="node"><title>5</title>
<ellipse fill="none" stroke="black" cx="248.967" cy="-167" rx="27" ry="18.3848"/>
<text text-anchor="middle" x="248.967" y="-163.4" font-family="Times Roman,serif" font-size="14.00">5</text>
</g>
<!-- 5&#45;&#45;8 -->
<g id="edge22" class="edge"><title>5&#45;&#45;8</title>
<path fill="none" stroke="black" d="M235.651,-150.577C225.708,-138.314 212.18,-121.629 202.245,-109.377"/>
</g>
<!-- 5&#45;&#45;9 -->
<g id="edge24" class="edge"><title>5&#45;&#45;9</title>
<path fill="none" stroke="black" d="M251.995,-148.327C253.828,-137.023 256.156,-122.667 257.981,-111.411"/>
</g>
<!-- 6 -->
<g id="node23" class="node"><title>6</title>
<ellipse fill="none" stroke="black" cx="95.9667" cy="-167" rx="27" ry="18.3848"/>
<text text-anchor="middle" x="95.9667" y="-163.4" font-family="Times Roman,serif" font-size="14.00">6</text>
</g>
<!-- 6&#45;&#45;10 -->
<g id="edge28" class="edge"><title>6&#45;&#45;10</title>
<path fill="none" stroke="black" d="M70.7911,-159.556C49.0273,-151.635 18.9335,-136.761 4.96672,-112 -9.49336,-86.3644 11.1266,-53.765 26.6125,-34.7554"/>
</g>
<!-- 6&#45;&#45;8 -->
<g id="edge26" class="edge"><title>6&#45;&#45;8</title>
<path fill="none" stroke="black" d="M113.898,-152.732C130.366,-139.628 154.64,-120.314 171.09,-107.224"/>
</g>
</g>
</svg>
