<?xml version="1.0" encoding="UTF-8" standalone="no"?>
<!DOCTYPE svg PUBLIC "-//W3C//DTD SVG 1.1//EN"
 "http://www.w3.org/Graphics/SVG/1.1/DTD/svg11.dtd">
<!-- Generated by graphviz version 2.26.3 (20100126.1600)
 -->
<!-- Title: parts Pages: 1 -->
<svg width="299pt" height="416pt"
 viewBox="0.00 0.00 299.00 416.00" xmlns="http://www.w3.org/2000/svg" xmlns:xlink="http://www.w3.org/1999/xlink">
<g id="graph1" class="graph" transform="scale(1 1) rotate(0) translate(4 412)">
<title>parts</title>
<polygon fill="white" stroke="white" points="-4,5 -4,-412 296,-412 296,5 -4,5"/>
<!-- 1 -->
<g id="node1" class="node"><title>1</title>
<ellipse fill="none" stroke="black" cx="236" cy="-389" rx="27" ry="18.3848"/>
<text text-anchor="middle" x="236" y="-385.4" font-family="Times Roman,serif" font-size="14.00">1</text>
</g>
<!-- 7 -->
<g id="node3" class="node"><title>7</title>
<ellipse fill="none" stroke="black" cx="264" cy="-93" rx="27" ry="18.3848"/>
<text text-anchor="middle" x="264" y="-89.4" font-family="Times Roman,serif" font-size="14.00">7</text>
</g>
<!-- 1&#45;&#45;7 -->
<g id="edge2" class="edge"><title>1&#45;&#45;7</title>
<path fill="none" stroke="black" d="M239.428,-370.471C241.297,-359.83 243.524,-346.199 245,-334 255.009,-251.293 260.92,-151.95 263.07,-111.496"/>
</g>
<!-- 2 -->
<g id="node5" class="node"><title>2</title>
<ellipse fill="none" stroke="black" cx="209" cy="-315" rx="27" ry="18.3848"/>
<text text-anchor="middle" x="209" y="-311.4" font-family="Times Roman,serif" font-size="14.00">2</text>
</g>
<!-- 1&#45;&#45;2 -->
<g id="edge4" class="edge"><title>1&#45;&#45;2</title>
<path fill="none" stroke="black" d="M229.326,-370.708C225.141,-359.238 219.768,-344.512 215.597,-333.082"/>
</g>
<!-- 10 -->
<g id="node15" class="node"><title>10</title>
<ellipse fill="none" stroke="black" cx="209" cy="-19" rx="27" ry="18.3848"/>
<text text-anchor="middle" x="209" y="-15.4" font-family="Times Roman,serif" font-size="14.00">10</text>
</g>
<!-- 7&#45;&#45;10 -->
<g id="edge30" class="edge"><title>7&#45;&#45;10</title>
<path fill="none" stroke="black" d="M251.52,-76.2083C242.519,-64.0977 230.421,-47.8206 221.431,-35.7253"/>
</g>
<!-- 3 -->
<g id="node7" class="node"><title>3</title>
<ellipse fill="none" stroke="black" cx="154" cy="-241" rx="27" ry="18.3848"/>
<text text-anchor="middle" x="154" y="-237.4" font-family="Times Roman,serif" font-size="14.00">3</text>
</g>
<!-- 2&#45;&#45;3 -->
<g id="edge6" class="edge"><title>2&#45;&#45;3</title>
<path fill="none" stroke="black" d="M196.52,-298.208C187.519,-286.098 175.421,-269.821 166.431,-257.725"/>
</g>
<!-- 4 -->
<g id="node9" class="node"><title>4</title>
<ellipse fill="none" stroke="black" cx="209" cy="-167" rx="27" ry="18.3848"/>
<text text-anchor="middle" x="209" y="-163.4" font-family="Times Roman,serif" font-size="14.00">4</text>
</g>
<!-- 2&#45;&#45;4 -->
<g id="edge8" class="edge"><title>2&#45;&#45;4</title>
<path fill="none" stroke="black" d="M209,-296.256C209,-267.787 209,-213.97 209,-185.592"/>
</g>
<!-- 3&#45;&#45;4 -->
<g id="edge10" class="edge"><title>3&#45;&#45;4</title>
<path fill="none" stroke="black" d="M166.48,-224.208C175.481,-212.098 187.579,-195.821 196.569,-183.725"/>
</g>
<!-- 9 -->
<g id="node12" class="node"><title>9</title>
<ellipse fill="none" stroke="black" cx="154" cy="-93" rx="27" ry="18.3848"/>
<text text-anchor="middle" x="154" y="-89.4" font-family="Times Roman,serif" font-size="14.00">9</text>
</g>
<!-- 3&#45;&#45;9 -->
<g id="edge12" class="edge"><title>3&#45;&#45;9</title>
<path fill="none" stroke="black" d="M154,-222.256C154,-193.787 154,-139.97 154,-111.592"/>
</g>
<!-- 4&#45;&#45;7 -->
<g id="edge14" class="edge"><title>4&#45;&#45;7</title>
<path fill="none" stroke="black" d="M221.48,-150.208C230.481,-138.098 242.579,-121.821 251.569,-109.725"/>
</g>
<!-- 4&#45;&#45;9 -->
<g id="edge20" class="edge"><title>4&#45;&#45;9</title>
<path fill="none" stroke="black" d="M196.52,-150.208C187.519,-138.098 175.421,-121.821 166.431,-109.725"/>
</g>
<!-- 4&#45;&#45;10 -->
<g id="edge16" class="edge"><title>4&#45;&#45;10</title>
<path fill="none" stroke="black" d="M209,-148.256C209,-119.787 209,-65.9699 209,-37.5921"/>
</g>
<!-- 8 -->
<g id="node17" class="node"><title>8</title>
<ellipse fill="none" stroke="black" cx="82" cy="-93" rx="27" ry="18.3848"/>
<text text-anchor="middle" x="82" y="-89.4" font-family="Times Roman,serif" font-size="14.00">8</text>
</g>
<!-- 4&#45;&#45;8 -->
<g id="edge18" class="edge"><title>4&#45;&#45;8</title>
<path fill="none" stroke="black" d="M188.313,-154.946C164.696,-141.185 126.291,-118.808 102.679,-105.049"/>
</g>
<!-- 5 -->
<g id="node19" class="node"><title>5</title>
<ellipse fill="none" stroke="black" cx="99" cy="-167" rx="27" ry="18.3848"/>
<text text-anchor="middle" x="99" y="-163.4" font-family="Times Roman,serif" font-size="14.00">5</text>
</g>
<!-- 5&#45;&#45;9 -->
<g id="edge24" class="edge"><title>5&#45;&#45;9</title>
<path fill="none" stroke="black" d="M111.48,-150.208C120.481,-138.098 132.579,-121.821 141.569,-109.725"/>
</g>
<!-- 5&#45;&#45;8 -->
<g id="edge22" class="edge"><title>5&#45;&#45;8</title>
<path fill="none" stroke="black" d="M94.7978,-148.708C92.1823,-137.323 88.8302,-122.732 86.2128,-111.338"/>
</g>
<!-- 6 -->
<g id="node22" class="node"><title>6</title>
<ellipse fill="none" stroke="black" cx="27" cy="-167" rx="27" ry="18.3848"/>
<text text-anchor="middle" x="27" y="-163.4" font-family="Times Roman,serif" font-size="14.00">6</text>
</g>
<!-- 6&#45;&#45;10 -->
<g id="edge28" class="edge"><title>6&#45;&#45;10</title>
<path fill="none" stroke="black" d="M25.6793,-148.201C25.2783,-127.521 27.8912,-94.5039 46,-74 64.3372,-53.2374 141.684,-33.6861 182.895,-24.4923"/>
</g>
<!-- 6&#45;&#45;8 -->
<g id="edge26" class="edge"><title>6&#45;&#45;8</title>
<path fill="none" stroke="black" d="M39.4804,-150.208C48.4814,-138.098 60.5793,-121.821 69.569,-109.725"/>
</g>
</g>
</svg>
