<?xml version="1.0" encoding="UTF-8" standalone="no"?>
<!DOCTYPE svg PUBLIC "-//W3C//DTD SVG 1.1//EN"
 "http://www.w3.org/Graphics/SVG/1.1/DTD/svg11.dtd">
<!-- Generated by graphviz version 2.26.3 (20100126.1600)
 -->
<!-- Title: arch Pages: 1 -->
<svg width="169pt" height="336pt"
 viewBox="0.00 0.00 168.65 336.00" xmlns="http://www.w3.org/2000/svg" xmlns:xlink="http://www.w3.org/1999/xlink">
<g id="graph1" class="graph" transform="scale(1 1) rotate(0) translate(4 332)">
<title>arch</title>
<polygon fill="white" stroke="white" points="-4,5 -4,-332 165.652,-332 165.652,5 -4,5"/>
<!-- DRAM -->
<g id="node1" class="node"><title>DRAM</title>
<polyline fill="none" stroke="black" points="117,-328 83,-328 "/>
<path fill="none" stroke="black" d="M83,-328C77,-328 71,-322 71,-316"/>
<polyline fill="none" stroke="black" points="71,-316 71,-304 "/>
<path fill="none" stroke="black" d="M71,-304C71,-298 77,-292 83,-292"/>
<polyline fill="none" stroke="black" points="83,-292 117,-292 "/>
<path fill="none" stroke="black" d="M117,-292C123,-292 129,-298 129,-304"/>
<polyline fill="none" stroke="black" points="129,-304 129,-316 "/>
<path fill="none" stroke="black" d="M129,-316C129,-322 123,-328 117,-328"/>
<text text-anchor="middle" x="100" y="-306.4" font-family="Times Roman,serif" font-size="14.00">DRAM</text>
</g>
<!-- x -->
<g id="node3" class="node"><title>x</title>
<polyline fill="none" stroke="black" points="42,-255 12,-255 "/>
<path fill="none" stroke="black" d="M12,-255C6,-255 1.77636e-14,-249 1.42109e-14,-243"/>
<polyline fill="none" stroke="black" points="1.42109e-14,-243 7.10543e-15,-231 "/>
<path fill="none" stroke="black" d="M7.10543e-15,-231C3.55271e-15,-225 6,-219 12,-219"/>
<polyline fill="none" stroke="black" points="12,-219 42,-219 "/>
<path fill="none" stroke="black" d="M42,-219C48,-219 54,-225 54,-231"/>
<polyline fill="none" stroke="black" points="54,-231 54,-243 "/>
<path fill="none" stroke="black" d="M54,-243C54,-249 48,-255 42,-255"/>
<text text-anchor="middle" x="27" y="-233.4" font-family="Times Roman,serif" font-size="14.00">x</text>
</g>
<!-- DRAM&#45;&gt;x -->
<g id="edge17" class="edge"><title>DRAM&#45;&gt;x</title>
<path fill="none" stroke="black" d="M81.9551,-291.955C73.0054,-283.005 62.047,-272.047 52.2769,-262.277"/>
<polygon fill="black" stroke="black" points="54.6363,-259.687 45.0904,-255.09 49.6866,-264.636 54.6363,-259.687"/>
</g>
<!-- cell -->
<g id="node4" class="node"><title>cell</title>
<polyline fill="none" stroke="black" points="84,-219 124,-219 "/>
<path fill="none" stroke="black" d="M124,-219C130,-219 136,-225 136,-231"/>
<polyline fill="none" stroke="black" points="136,-231 136,-243 "/>
<path fill="none" stroke="black" d="M136,-243C136,-249 130,-255 124,-255"/>
<polyline fill="none" stroke="black" points="124,-255 84,-255 "/>
<path fill="none" stroke="black" d="M84,-255C78,-255 72,-249 72,-243"/>
<polyline fill="none" stroke="black" points="72,-243 72,-231 "/>
<path fill="none" stroke="black" d="M72,-231C72,-225 78,-219 84,-219"/>
<text text-anchor="middle" x="84.5" y="-233.4" font-family="Times Roman,serif" font-size="14.00">q</text>
<polyline fill="none" stroke="black" points="97,-219 97,-255 "/>
<text text-anchor="middle" x="116.5" y="-233.4" font-family="Times Roman,serif" font-size="14.00">adt</text>
</g>
<!-- DRAM&#45;&gt;cell -->
<g id="edge19" class="edge"><title>DRAM&#45;&gt;cell:f0</title>
<path fill="none" stroke="black" d="M91.9063,-291.798C88.9919,-284.062 86.0941,-274.654 84.7603,-265.2"/>
<polygon fill="black" stroke="black" points="88.2337,-264.712 84,-255 81.2531,-265.233 88.2337,-264.712"/>
</g>
<!-- DRAM&#45;&gt;cell -->
<g id="edge21" class="edge"><title>DRAM&#45;&gt;cell:f1</title>
<path fill="none" stroke="black" d="M108.6,-291.847C111.696,-284.122 114.775,-274.717 116.192,-265.238"/>
<polygon fill="black" stroke="black" points="119.702,-265.244 117,-255 112.724,-264.694 119.702,-265.244"/>
</g>
<!-- arith -->
<g id="node5" class="node"><title>arith</title>
<polyline fill="none" stroke="black" points="134,-182 12,-182 "/>
<path fill="none" stroke="black" d="M12,-182C6,-182 5.92119e-14,-176 4.73695e-14,-170"/>
<polyline fill="none" stroke="black" points="4.73695e-14,-170 2.36848e-14,-158 "/>
<path fill="none" stroke="black" d="M2.36848e-14,-158C1.18424e-14,-152 6,-146 12,-146"/>
<polyline fill="none" stroke="black" points="12,-146 134,-146 "/>
<path fill="none" stroke="black" d="M134,-146C140,-146 146,-152 146,-158"/>
<polyline fill="none" stroke="black" points="146,-158 146,-170 "/>
<path fill="none" stroke="black" d="M146,-170C146,-176 140,-182 134,-182"/>
<text text-anchor="middle" x="73" y="-160.4" font-family="Times Roman,serif" font-size="14.00">Arithmetic pipeline</text>
</g>
<!-- x&#45;&gt;arith -->
<g id="edge3" class="edge"><title>x&#45;&gt;arith</title>
<path fill="none" stroke="black" d="M38.3708,-218.955C43.7338,-210.444 50.2417,-200.116 56.1615,-190.722"/>
<polygon fill="black" stroke="black" points="59.2305,-192.417 61.6006,-182.09 53.3082,-188.685 59.2305,-192.417"/>
</g>
<!-- cell&#45;&gt;arith -->
<g id="edge5" class="edge"><title>cell:f0&#45;&gt;arith</title>
<path fill="none" stroke="black" d="M84,-219C84,-210.139 82.6101,-200.628 80.8183,-192.048"/>
<polygon fill="black" stroke="black" points="84.1887,-191.09 78.5,-182.152 77.3732,-192.687 84.1887,-191.09"/>
</g>
<!-- cell&#45;&gt;arith -->
<g id="edge7" class="edge"><title>cell:f1&#45;&gt;arith</title>
<path fill="none" stroke="black" d="M117,-219C117,-208.065 111.631,-198.059 104.645,-189.667"/>
<polygon fill="black" stroke="black" points="106.97,-187.03 97.5729,-182.137 101.868,-191.822 106.97,-187.03"/>
</g>
<!-- add -->
<g id="node6" class="node"><title>add</title>
<ellipse fill="none" stroke="black" cx="96" cy="-91" rx="27" ry="18.3848"/>
<text text-anchor="middle" x="96" y="-87.4" font-family="Times Roman,serif" font-size="14.00">+</text>
</g>
<!-- arith&#45;&gt;add -->
<g id="edge9" class="edge"><title>arith&#45;&gt;add</title>
<path fill="none" stroke="black" d="M78.6854,-145.955C81.2563,-137.795 84.3534,-127.965 87.2132,-118.889"/>
<polygon fill="black" stroke="black" points="90.6334,-119.68 90.3003,-109.09 83.9569,-117.576 90.6334,-119.68"/>
</g>
<!-- res -->
<g id="node7" class="node"><title>res</title>
<polyline fill="none" stroke="black" points="111,-36 81,-36 "/>
<path fill="none" stroke="black" d="M81,-36C75,-36 69,-30 69,-24"/>
<polyline fill="none" stroke="black" points="69,-24 69,-12 "/>
<path fill="none" stroke="black" d="M69,-12C69,-6 75,-1.61846e-14 81,-1.46056e-14"/>
<polyline fill="none" stroke="black" points="81,-1.46056e-14 111,-6.71068e-15 "/>
<path fill="none" stroke="black" d="M111,-6.71068e-15C117,-5.1317e-15 123,-6 123,-12"/>
<polyline fill="none" stroke="black" points="123,-12 123,-24 "/>
<path fill="none" stroke="black" d="M123,-24C123,-30 117,-36 111,-36"/>
<text text-anchor="middle" x="96" y="-14.4" font-family="Times Roman,serif" font-size="14.00">res</text>
</g>
<!-- add&#45;&gt;res -->
<g id="edge11" class="edge"><title>add&#45;&gt;res</title>
<path fill="none" stroke="black" d="M90.0476,-72.579C89.2856,-64.6515 89.0696,-55.2019 89.3995,-46.4113"/>
<polygon fill="black" stroke="black" points="92.9097,-46.3701 90.0727,-36.1622 85.9247,-45.9113 92.9097,-46.3701"/>
</g>
<!-- res&#45;&gt;DRAM -->
<g id="edge15" class="edge"><title>res&#45;&gt;DRAM</title>
<path fill="none" stroke="black" d="M110.05,-36.2052C117.356,-46.3236 125.99,-59.3872 132,-72 146.815,-103.092 149.83,-111.949 155,-146 162.369,-194.534 164.772,-211.067 145,-256 140.53,-266.158 133.558,-275.913 126.425,-284.27"/>
<polygon fill="black" stroke="black" points="123.712,-282.051 119.613,-291.821 128.91,-286.74 123.712,-282.051"/>
</g>
<!-- res&#45;&gt;add -->
<g id="edge13" class="edge"><title>res&#45;&gt;add</title>
<path fill="none" stroke="black" d="M101.927,-36.1622C102.71,-44.143 102.934,-53.7039 102.6,-62.591"/>
<polygon fill="black" stroke="black" points="99.1072,-62.3734 101.952,-72.579 106.093,-62.8266 99.1072,-62.3734"/>
</g>
</g>
</svg>
